<?xml version="1.0"?>
<svg xmlns="http://www.w3.org/2000/svg" width="196" height="196" viewBox="0 0 196 196" fill="none">
<g opacity="0.1" clip-path="url(#clip0)">
<path d="M196 73.6938C196 69.6943 192.745 66.44 188.746 66.44H170.671C169.085 66.44 167.8 67.7255 167.8 69.3111C167.8 70.8967 169.085 72.1821 170.671 72.1821H188.746C189.579 72.1821 190.257 72.8601 190.257 73.6938V173.205L150.653 124.509C149.27 122.809 147.219 121.833 145.026 121.833H111.57C109.984 121.833 108.698 123.118 108.698 124.704C108.698 126.289 109.984 127.575 111.57 127.575H145.025C145.483 127.575 145.91 127.778 146.198 128.133L187.093 178.415H46.1533C45.6962 178.415 45.2686 178.212 44.9803 177.857L6.09078 130.04C5.54719 129.371 5.77535 128.697 5.89861 128.437C6.02188 128.178 6.40201 127.575 7.26371 127.575H97.3953C98.9809 127.575 100.266 126.289 100.266 124.704C100.266 123.118 98.9809 121.833 97.3953 121.833H46.9407V99.8324C47.348 99.8435 47.7565 99.8504 48.1664 99.8504H81.9072C84.3155 99.8504 86.4672 98.413 87.3886 96.1881C88.3101 93.9628 87.8055 91.4252 86.1024 89.7221L81.2472 84.8669C87.9812 77.2126 91.7994 67.5877 92.1424 57.3575H101.609C102.013 57.3575 102.392 57.5148 102.678 57.8L110.733 65.8558C110.093 67.4296 109.737 69.1484 109.737 70.9495C109.737 78.4246 115.818 84.5059 123.293 84.5059C130.352 84.5059 136.166 79.0811 136.791 72.1821H156.497C158.082 72.1821 159.368 70.8967 159.368 69.3111C159.368 67.7255 158.082 66.44 156.497 66.44H136.075C134.213 61.176 129.188 57.3935 123.293 57.3935C119.722 57.3935 116.471 58.7838 114.047 61.0493L106.738 53.7399C105.368 52.3699 103.547 51.6153 101.609 51.6153H91.9617C91.2577 44.2382 88.7224 37.1934 84.5107 31.0352C83.6153 29.7263 81.8287 29.391 80.5199 30.286C79.2111 31.181 78.8757 32.968 79.7707 34.2768C84.126 40.6448 86.4282 48.1038 86.4282 55.8465C86.4282 66.0664 82.4481 75.6749 75.2214 82.9016C74.1002 84.0228 74.1002 85.8408 75.2214 86.9616L82.042 93.7821C82.0902 93.8304 82.1323 93.8725 82.0833 93.9904C82.0347 94.1083 81.9753 94.1083 81.9072 94.1083H48.1664C27.0691 94.1083 9.90509 76.9443 9.90471 55.8469C9.90471 45.637 13.8871 36.0316 21.1191 28.7996C28.3511 21.5675 37.9565 17.5848 48.1664 17.5848C56.2724 17.5848 64.0186 20.0895 70.5673 24.8272C71.8523 25.757 73.6473 25.4687 74.5764 24.184C75.5059 22.8993 75.218 21.1043 73.9333 20.1749C66.3992 14.7237 57.489 11.8423 48.1664 11.8423C36.4226 11.8423 25.3752 16.4222 17.0586 24.7387C8.7425 33.0556 4.16257 44.1035 4.16257 55.8469C4.16257 77.7398 20.2344 95.9469 41.1986 99.2969V121.833H7.26371C4.43743 121.833 1.92735 123.418 0.713085 125.971C-0.500801 128.523 -0.147469 131.471 1.63604 133.664L40.5256 181.481C41.909 183.182 43.9605 184.158 46.1533 184.158H193.128C194.672 184.177 196.024 182.83 195.999 181.285V73.6938H196ZM123.293 63.1356C127.602 63.1356 131.108 66.641 131.108 70.9499C131.108 75.2588 127.602 78.7642 123.293 78.7642C118.985 78.7642 115.479 75.2588 115.479 70.9499C115.479 66.641 118.985 63.1356 123.293 63.1356Z" fill="black"/>
<path d="M105.931 155.6L115.842 168.622C117.101 170.277 119.094 171.264 121.173 171.264H159.844C161.675 171.264 163.318 170.245 164.131 168.604C164.945 166.964 164.761 165.039 163.652 163.581L153.741 150.559C152.482 148.905 150.489 147.917 148.41 147.917H109.739C107.908 147.917 106.265 148.936 105.452 150.577C104.639 152.219 104.822 154.143 105.931 155.6ZM148.41 153.659C148.707 153.659 148.992 153.801 149.172 154.037L157.913 165.522H121.173C120.876 165.522 120.591 165.381 120.412 165.145L111.671 153.659H148.41Z" fill="black"/>
<path d="M77.564 168.393C77.564 169.978 78.8494 171.264 80.4351 171.264H98.0012C99.5868 171.264 100.872 169.978 100.872 168.393C100.872 166.807 99.5868 165.521 98.0012 165.521H80.4351C78.8494 165.521 77.564 166.807 77.564 168.393Z" fill="black"/>
<path d="M91.5903 161.741C93.1759 161.741 94.4614 160.455 94.4614 158.87C94.4614 157.284 93.1759 155.999 91.5903 155.999H84.1343C82.5487 155.999 81.2632 157.284 81.2632 158.87C81.2632 160.455 82.5487 161.741 84.1343 161.741H91.5903Z" fill="black"/>
<path d="M68.4915 44.1352C68.4915 41.8345 67.5953 39.6712 65.9688 38.0451C64.3419 36.4181 62.179 35.522 59.8783 35.522C57.5776 35.522 55.4144 36.4181 53.7878 38.0451L48.1663 43.6666L42.5455 38.0447C40.9185 36.4177 38.7557 35.522 36.455 35.522C34.1543 35.522 31.9911 36.4181 30.3645 38.0447C28.7376 39.6716 27.8418 41.8345 27.8418 44.1352C27.8418 46.4359 28.7376 48.5987 30.3645 50.2257L35.9857 55.8472L30.3645 61.4684C28.7376 63.0953 27.8418 65.2582 27.8418 67.5589C27.8418 69.8595 28.738 72.0228 30.3645 73.649C31.9914 75.2759 34.1543 76.1721 36.455 76.1721C38.7557 76.1721 40.9189 75.2759 42.5455 73.6493L48.1666 68.0278L53.7882 73.6493C55.4151 75.2763 57.578 76.1721 59.8787 76.1721C62.1794 76.1721 64.3422 75.2763 65.9692 73.6493C67.5961 72.0224 68.4919 69.8595 68.4919 67.5589C68.4919 65.2582 67.5961 63.0953 65.9692 61.4684L60.3476 55.8468L65.9692 50.2253C67.5957 48.5987 68.4915 46.4359 68.4915 44.1352ZM61.9083 46.1652L54.2568 53.8168C53.1355 54.938 53.1355 56.756 54.2568 57.8769L61.9083 65.5284C62.4508 66.0709 62.7494 66.7917 62.7494 67.5585C62.7494 68.3252 62.4508 69.0465 61.9083 69.5885C61.3659 70.1306 60.6451 70.4295 59.8783 70.4295C59.1115 70.4295 58.3903 70.131 57.8483 69.5885L50.1967 61.9369C49.6585 61.3983 48.9281 61.0959 48.1666 61.0959C47.4052 61.0959 46.6748 61.3983 46.1366 61.9369L38.485 69.5885C37.943 70.1306 37.2221 70.4292 36.455 70.4292C35.6878 70.4292 34.967 70.1306 34.425 69.5881C33.8825 69.0461 33.5839 68.3252 33.5839 67.5581C33.5839 66.7913 33.8825 66.0701 34.425 65.5281L42.0762 57.8765C43.1974 56.7552 43.1974 54.9373 42.0762 53.8164L34.425 46.1648C33.8825 45.6224 33.5839 44.9016 33.5839 44.1348C33.5839 43.368 33.8825 42.6468 34.425 42.1048C34.967 41.5623 35.6878 41.2637 36.455 41.2637C37.2221 41.2637 37.943 41.5623 38.485 42.1048L46.1362 49.7563C46.6745 50.2949 47.4049 50.5974 48.1663 50.5974C48.9277 50.5974 49.6581 50.2949 50.1963 49.7563L57.8479 42.1048C58.3903 41.5623 59.1108 41.2637 59.8779 41.2637C60.6451 41.2637 61.3655 41.5623 61.908 42.1051C62.4504 42.6472 62.749 43.368 62.749 44.1352C62.7494 44.9019 62.4508 45.6228 61.9083 46.1652Z" fill="black"/>
<path d="M160.714 61.0092C166.947 61.0092 172.018 55.9385 172.018 49.7059C172.018 43.4733 166.947 38.4026 160.714 38.4026C154.482 38.4026 149.411 43.4733 149.411 49.7059C149.411 55.9385 154.482 61.0092 160.714 61.0092ZM160.714 44.1448C163.781 44.1448 166.276 46.6396 166.276 49.7059C166.276 52.7722 163.781 55.267 160.714 55.267C157.648 55.267 155.153 52.7722 155.153 49.7059C155.153 46.6396 157.648 44.1448 160.714 44.1448Z" fill="black"/>
<path d="M131.774 39.9072C132.334 40.4676 133.069 40.7482 133.804 40.7482C134.538 40.7482 135.273 40.468 135.834 39.9072L137.387 38.3537L138.941 39.9072C139.501 40.468 140.236 40.7482 140.971 40.7482C141.705 40.7482 142.44 40.468 143.001 39.9072C144.122 38.7859 144.122 36.9683 143.001 35.8471L141.447 34.2936L143.001 32.7402C144.122 31.6189 144.122 29.8009 143.001 28.6801C141.879 27.5588 140.062 27.5588 138.941 28.6801L137.387 30.2335L135.834 28.6801C134.712 27.5588 132.894 27.5588 131.774 28.6801C130.652 29.8013 130.652 31.6189 131.774 32.7402L133.327 34.2936L131.774 35.8471C130.652 36.9683 130.652 38.7863 131.774 39.9072Z" fill="black"/>
<path d="M10.84 113.003C11.4004 113.563 12.1354 113.844 12.8701 113.844C13.6047 113.844 14.3397 113.563 14.9001 113.003L17.6047 110.298L20.3093 113.003C20.8697 113.563 21.6047 113.844 22.3393 113.844C23.0739 113.844 23.8089 113.563 24.3694 113.003C25.4906 111.881 25.4906 110.063 24.3694 108.943L21.6648 106.238L24.3694 103.533C25.4906 102.412 25.4906 100.594 24.3694 99.4733C23.2481 98.352 21.4301 98.352 20.3093 99.4733L17.6047 102.178L14.9001 99.4733C13.7789 98.352 11.9609 98.352 10.84 99.4733C9.71875 100.595 9.71875 102.412 10.84 103.533L13.5446 106.238L10.84 108.943C9.71837 110.063 9.71837 111.881 10.84 113.003Z" fill="black"/>
</g>
<defs>
<clipPath id="clip0">
<rect width="196" height="196" fill="white"/>
</clipPath>
</defs>
</svg>
